<svg width="16" height="10" viewBox="0 0 16 10" fill="none" xmlns="http://www.w3.org/2000/svg">
<path d="M8.00053 1.20996C8.77732 1.20999 9.53203 1.46844 10.1458 1.9446C10.7595 2.42075 11.1974 3.08755 11.3905 3.83996C11.4411 4.02836 11.5457 4.19785 11.6914 4.32755C11.8371 4.45726 12.0175 4.54152 12.2105 4.56996C12.7478 4.64295 13.2367 4.91904 13.5767 5.34144C13.9166 5.76384 14.0818 6.30045 14.0383 6.84092C13.9948 7.38139 13.7458 7.88463 13.3426 8.24715C12.9394 8.60968 12.4126 8.80393 11.8705 8.78996H4.68053C4.00169 8.7979 3.34513 8.54792 2.84348 8.0905C2.34182 7.63309 2.03246 7.00234 1.97786 6.32565C1.92327 5.64897 2.12753 4.97678 2.54937 4.44486C2.97121 3.91295 3.5792 3.56095 4.25053 3.45996C4.40234 3.44555 4.54884 3.3966 4.67884 3.31688C4.80883 3.23715 4.91886 3.12875 5.00053 2.99996C5.30155 2.46631 5.73664 2.02047 6.2628 1.70653C6.78895 1.39259 7.38794 1.22143 8.00053 1.20996ZM8.00053 0.209961C7.20765 0.209725 6.42872 0.418519 5.74227 0.815294C5.05581 1.21207 4.48609 1.7828 4.09053 2.46996C3.16691 2.60664 2.32978 3.08928 1.74871 3.82011C1.16765 4.55094 0.88611 5.47532 0.961122 6.40597C1.03613 7.33663 1.46209 8.20398 2.1527 8.83231C2.84332 9.46064 3.74694 9.80298 4.68053 9.78996H11.8705C12.6662 9.80602 13.438 9.51739 14.0279 8.98314C14.6178 8.44889 14.9812 7.70941 15.0438 6.91602C15.1064 6.12262 14.8634 5.33529 14.3646 4.71514C13.8658 4.09499 13.1489 3.6889 12.3605 3.57996C12.1085 2.61531 11.5439 1.76136 10.7551 1.15162C9.96622 0.54189 8.99756 0.210744 8.00053 0.209961Z" fill="white" fill-opacity="0.9"/>
</svg>
