<svg width="26" height="26" viewBox="0 0 26 26" fill="none" xmlns="http://www.w3.org/2000/svg">
<circle cx="13" cy="13" r="13" fill="white" fill-opacity="0.14"/>
<path d="M18.0627 17.675C16.6243 17.6313 15.245 17.0925 14.1578 16.1496C13.0706 15.2068 12.3421 13.9176 12.0953 12.4998C11.8485 11.0821 12.0985 9.62256 12.8031 8.36777C13.5077 7.11297 14.6237 6.13977 15.9627 5.6125C14.5877 5.16282 13.1145 5.10569 11.7088 5.44754C10.3031 5.78939 9.0206 6.51665 8.00563 7.54754C6.99066 8.57843 6.28344 9.87206 5.96351 11.2829C5.64357 12.6938 5.72362 14.1659 6.19464 15.5338C6.66566 16.9017 7.50898 18.111 8.62974 19.0257C9.7505 19.9405 11.1043 20.5244 12.5388 20.7118C13.9732 20.8993 15.4316 20.6827 16.7497 20.0866C18.0679 19.4905 19.1936 18.5384 20.0002 17.3375C19.3766 17.5528 18.7225 17.6667 18.0627 17.675V17.675Z" fill="#FEE2A8"/>
</svg>
